<svg xmlns="http://www.w3.org/2000/svg" viewBox="0 0 24 24"><path d="M18.013,3.754H15.269V1.521a.516.516,0,0,0-.515-.515H9.246a.516.516,0,0,0-.515.515V3.754H5.987a.516.516,0,0,0-.515.516V19.73a.516.516,0,0,0,.515.516H7.268v1.059a1.692,1.692,0,0,0,3.383,0V20.246h2.7v1.059a1.692,1.692,0,0,0,3.383,0V20.246h1.281a.516.516,0,0,0,.515-.516V4.27A.516.516,0,0,0,18.013,3.754ZM9.762,2.036h4.476V3.754H9.762ZM9.62,21.305a.661.661,0,0,1-1.321,0V20.246H9.62Zm-.756-2.09v-6.7h6.272v6.7Zm6.837,2.09a.661.661,0,0,1-1.321,0V20.246H15.7Zm1.8-2.09h-1.33V12a.515.515,0,0,0-.515-.515h-7.3A.515.515,0,0,0,7.833,12v7.215H6.5V4.785H17.5Z"/><path d="M13.667,6A1.621,1.621,0,0,0,12,6.237,1.618,1.618,0,0,0,10.333,6,1.838,1.838,0,0,0,9.3,7.229a1.645,1.645,0,0,0,.285,1.406,27.865,27.865,0,0,0,2.074,2.009.515.515,0,0,0,.686,0,27.865,27.865,0,0,0,2.074-2.009A1.645,1.645,0,0,0,14.7,7.229,1.838,1.838,0,0,0,13.667,6ZM13.6,8.005A21.424,21.424,0,0,1,12,9.566a21.424,21.424,0,0,1-1.6-1.561.619.619,0,0,1-.1-.529.816.816,0,0,1,.465-.539c.391-.18.939.372.839.327a.534.534,0,0,0,.8,0s.443-.508.839-.327a.816.816,0,0,1,.465.539A.619.619,0,0,1,13.6,8.005Z"/></svg>